{"title":"Slutty School Girls *2011* [XXX] [DVDRip.XviD-miguel] [ENG]","uid":6528837,"size":1461911408,"categoryP":"porn","categoryS":"other","magnet":"?xt=urn:btih:5d050f6f1f94f2bf97dbc27b9519073d9c588ba4&amp;dn=Slutty+School+Girls+%2A2011%2A+%5BXXX%5D+%5BDVDRip.XviD-miguel%5D+%5BENG%5D&amp;tr=udp%3A%2F%2Ftracker.openbittorrent.com%3A80&amp;tr=udp%3A%2F%2Fopen.demonii.com%3A1337&amp;tr=udp%3A%2F%2Ftracker.coppersurfer.tk%3A6969&amp;tr=udp%3A%2F%2Fexodus.desync.com%3A6969","seeders":0,"leechers":1,"uploader":"miguel1983","files":-1,"time":1310251696,"description":"\n\nCountry.......: USA\nGenre.........: Teen, Anal, Hardcore\nDate release..: 02.04.2011 [World]\nDirector......: Alex Romero\nStudio........: Combat Zone\nDuration......: 166 min.\nMore..........: http://store.kporn.com/1563054/slutty-school-girls-porn-movies.html\n\nPilot :\nDo you like my uniform? We're young and horny! Oops, caught again! What is my punishment? Will I pass the class if I... You're doubling my school load!?!? These teachers are Pervs!\n\nCats :\nCsoky Ice, George Uhl, Ian Scott, Lauro Giotto, Mia Leone, Morgan Moon, Nick Lang\n\nData Technical :\n!!! SAMPLE !!!\nAudio.....: English\nSubtitles.: None\n[ CD1 ]\nFormat                           : AVI\nFormat/Info                      : Audio Video Interleave\nFile size                        : 699 MiB\nDuration                         : 1h 22mn\nOverall bit rate                 : 1 184 Kbps\nWriting application              : VirtualDubMod 1.5.10.2 (build 2540/release)\nWriting library                  : VirtualDubMod build 2540/release\nVideo\nID                               : 0\nFormat                           : MPEG-4 Visual\nFormat profile                   : Advanced Simple@L5\nFormat settings, BVOP            : Yes\nFormat settings, QPel            : No\nFormat settings, GMC             : No warppoints\nFormat settings, Matrix          : Default (H.263)\nCodec ID                         : XVID\nCodec ID/Hint                    : XviD\nDuration                         : 1h 22mn\nBit rate                         : 1 060 Kbps\nWidth                            : 576 pixels\nHeight                           : 320 pixels\nDisplay aspect ratio             : 16:9\nFrame rate                       : 29.970 fps\nColor space                      : YUV\nChroma subsampling               : 4:2:0\nBit depth                        : 8 bits\nScan type                        : Progressive\nBits/(Pixel*Frame)               : 0.192\nStream size                      : 626 MiB (90%)\nWriting library                  : XviD 1.1.2 (UTC 2006-11-01)\nAudio\nID                               : 1\nFormat                           : MPEG Audio\nFormat version                   : Version 1\nFormat profile                   : Layer 3\nMode                             : Joint stereo\nMode extension                   : MS Stereo\nCodec ID                         : 55\nCodec ID/Hint                    : MP3\nDuration                         : 1h 22mn\nBit rate mode                    : Variable\nBit rate                         : 110 Kbps\nNominal bit rate                 : 128 Kbps\nChannel(s)                       : 2 channels\nSampling rate                    : 48.0 KHz\nStream size                      : 65.1 MiB (9%)\nAlignment                        : Aligned on interleaves\nInterleave, duration             : 24 ms (0.72 video frame)\nInterleave, preload duration     : 495 ms\nWriting library                  : LAME3.90.\nEncoding settings                : -m j -V 4 -q 2 -lowpass 17.6 --abr 128\n[ CD2 ]\nFormat                           : AVI\nFormat/Info                      : Audio Video Interleave\nFile size                        : 692 MiB\nDuration                         : 1h 23mn\nOverall bit rate                 : 1 157 Kbps\nWriting application              : VirtualDubMod 1.5.10.2 (build 2540/release)\nWriting library                  : VirtualDubMod build 2540/release\nVideo\nID                               : 0\nFormat                           : MPEG-4 Visual\nFormat profile                   : Advanced Simple@L5\nFormat settings, BVOP            : Yes\nFormat settings, QPel            : No\nFormat settings, GMC             : No warppoints\nFormat settings, Matrix          : Default (H.263)\nCodec ID                         : XVID\nCodec ID/Hint                    : XviD\nDuration                         : 1h 23mn\nBit rate                         : 1 033 Kbps\nWidth                            : 576 pixels\nHeight                           : 320 pixels\nDisplay aspect ratio             : 16:9\nFrame rate                       : 29.970 fps\nColor space                      : YUV\nChroma subsampling               : 4:2:0\nBit depth                        : 8 bits\nScan type                        : Progressive\nBits/(Pixel*Frame)               : 0.187\nStream size                      : 618 MiB (89%)\nWriting library                  : XviD 1.1.2 (UTC 2006-11-01)\nAudio\nID                               : 1\nFormat                           : MPEG Audio\nFormat version                   : Version 1\nFormat profile                   : Layer 3\nMode                             : Joint stereo\nMode extension                   : MS Stereo\nCodec ID                         : 55\nCodec ID/Hint                    : MP3\nDuration                         : 1h 23mn\nBit rate mode                    : Variable\nBit rate                         : 112 Kbps\nChannel(s)                       : 2 channels\nSampling rate                    : 48.0 KHz\nStream size                      : 65.7 MiB (9%)\nAlignment                        : Aligned on interleaves\nInterleave, duration             : 24 ms (0.72 video frame)\nInterleave, preload duration     : 502 ms\n\nScreen :\n","torrent":{"xt":"urn:btih:5d050f6f1f94f2bf97dbc27b9519073d9c588ba4","amp;dn":"Slutty+School+Girls+%2A2011%2A+%5BXXX%5D+%5BDVDRip.XviD-miguel%5D+%5BENG%5D","amp;tr":["udp%3A%2F%2Ftracker.openbittorrent.com%3A80","udp%3A%2F%2Fopen.demonii.com%3A1337","udp%3A%2F%2Ftracker.coppersurfer.tk%3A6969","udp%3A%2F%2Fexodus.desync.com%3A6969"],"infoHash":"5d050f6f1f94f2bf97dbc27b9519073d9c588ba4","infoHashBuffer":{"type":"Buffer","data":[93,5,15,111,31,148,242,191,151,219,194,123,149,25,7,61,156,88,139,164]},"announce":[],"urlList":[]}}